<?xml version="1.0" encoding="utf-8"?>
<!-- Generator: Adobe Illustrator 19.0.0, SVG Export Plug-In . SVG Version: 6.00 Build 0)  -->
<svg version="1.1" id="Layer_1" xmlns="http://www.w3.org/2000/svg" xmlns:xlink="http://www.w3.org/1999/xlink" x="0px" y="0px"
	 viewBox="0 0 500 500" style="enable-background:new 0 0 500 500;" xml:space="preserve">
<style type="text/css">
	.st0{fill:#010101;}
</style>
<path id="XMLID_47_" class="st0" d="M407.4,229.2c-1.5-1.2-3-2.6-4.5-3.9c-4.3-3.7-8.6-7.5-12.9-11.2c-4.6-4-9.2-7.9-13.8-11.9
	c-4.2-3.6-8.3-7.2-12.4-10.8c-4.7-4-9.3-8-14-12.1c-3.3-2.9-6.6-5.7-9.9-8.6c-5.4-4.6-10.7-9.2-16.1-13.9
	c-4.4-3.8-8.8-7.7-13.2-11.5c-6.4-5.5-12.8-11-19.2-16.6c-5.4-4.6-10.7-9.3-16-13.9c-6.7-5.8-13.5-11.7-20.3-17.5
	c-1.5-1.3-3-2.5-4.6-3.8c-2.6,2.2-5,4.3-7.4,6.3c-4.3,3.7-8.6,7.5-12.9,11.2c-5.4,4.7-10.8,9.3-16.2,14c-4.5,3.9-9,7.8-13.5,11.7
	c-7.2,6.2-14.3,12.3-21.5,18.5c-5.5,4.8-11,9.6-16.5,14.3c-8.3,7.1-16.5,14.2-24.8,21.4c-6.9,5.9-13.7,11.9-20.6,17.8
	c-7.8,6.7-15.5,13.4-23.3,20.1c-0.8,0.7-1.1,1.4-1.1,2.4c0,6.4,0,12.7,0,19.1c0,0.4,0.1,0.7,0.2,1.3c9.5-8.2,18.8-16.2,28.2-24.4
	c0.2,0.7,0.4,1.2,0.5,1.7c0.8,3.5,1.6,7.1,2.5,10.6c3.5,14.9,7,29.8,10.5,44.7c2.5,10.5,4.9,21.1,7.4,31.6
	c3.5,14.9,7,29.8,10.5,44.7c2.2,9.4,4.4,18.9,6.6,28.4c0.1,0.4,0.1,0.9,0.2,1.6c-4.6,0-9.1,0-13.5,0c-0.5,2.1-0.4,14.7,0,16.2
	c69.7,0,139.4,0,209.3,0c-0.1-5.4,0.1-10.7-0.1-16.2c-4.6,0-9.1,0-13.7,0c0-0.6-0.1-0.8,0-1.1c12.7-53.9,25.3-107.9,38-161.8
	c0,0,0.1-0.1,0.2-0.1c0.1,0,0.1,0,0.3-0.1c3,2.6,6.1,5.3,9.2,8c3.1,2.7,6.2,5.5,9.4,8.2c3.1,2.6,6,5.4,9.3,7.9
	c0.1-0.4,0.2-0.6,0.2-0.7c0-6.6,0-13.2,0-19.9C408.4,230.2,408.1,229.7,407.4,229.2z M254.1,159.9c0.7-3.3,1.4-6.6,2.2-9.9
	c0.7-2.6,1.8-5.2,3.3-7.5c2.4-3.7,5.3-4.8,9.5-3.4c2.6,0.8,4.8,2.4,6.6,4.4c4.2,4.7,7.1,10.1,8.5,16.2c1.3,5.7,0.2,11.1-2.6,16.2
	c-1.1,2.1-2.6,3.9-4.4,5.5c-0.1,0.1-0.3,0.2-0.5,0.5c-0.4,0.3-0.7,0.5-1,0.7c-0.1,0-0.1,0.1-0.2,0.1c-4.4,3-9.1,3.5-13.8,0.8
	c-3.6-2.1-5.8-5.3-7.1-9.2C253.1,169.5,253.1,164.7,254.1,159.9z M217.8,156.4c2.1-6,5.4-11.2,10.3-15.3c2.5-2.1,5.3-3,8.6-2.3
	c2.2,0.5,3.6,2,4.8,3.8c1.7,2.7,2.8,5.6,3.7,8.7c1.2,4.4,2.2,8.9,2.5,13.5c0.3,5.4-0.8,10.5-4.1,14.9c0,0,0,0,0,0.1
	c0,0-0.1,0.1-0.1,0.1c0,0-0.1,0.1-0.1,0.1c0,0.1-0.1,0.1-0.1,0.2c-0.5,0.6-0.9,1.1-1.4,1.5c-0.3,0.3-0.8,0.7-1.2,1
	c-0.6,0.5-1.3,0.8-1.9,1.1c-0.4,0.2-0.7,0.3-1.1,0.5c0,0,0,0,0,0l0,0c-4,1.6-8.4,1-12.1-1.6c-4.4-3.1-6.9-7.5-8.3-12.5
	C215.9,165.5,216.3,160.9,217.8,156.4z M204.5,207.7c-3.9-1.9-7.1-4.7-9.3-8.5c-1.5-2.6-2.3-5.4-2.5-8.4c-0.1-0.9-0.1-1.7-0.2-2.6
	c0.1-5.4,1.3-10.5,4.4-15.1c0.9-1.3,1.9-2.5,3.2-3.4c2.7-1.8,5.6-1.6,8.3,0.3c2.9,2,5,4.8,7,7.6c2.4,3.6,4.3,7.4,5.5,11.6
	c1.2,4.4,1.1,8.7-0.8,12.9C217.3,208.2,210.5,210.7,204.5,207.7z M218.1,214.5c2.7-2.3,5.3-4.6,7.6-7.3c2.8-3.2,5.2-6.7,7.3-10.4
	c2.9-5.2,7.1-8.8,12.9-10.3c6.6-1.8,13.1,0.7,17,6.4c3.2,4.7,6.8,9,10.7,13.1c3,3.2,6.1,6.3,9.1,9.5c2.7,2.8,4.9,5.8,5.8,9.6
	c1.5,6,0.9,11.8-2.7,17c-2,2.9-4.9,4.5-8.3,5.4c-3,0.8-7.4,1.3-10.3,1.2c-3.5-0.1-6.7-0.5-9.8-1.4c-3.4-0.9-6.9-1-10.5-0.7
	c-4.3,0.3-8.4,1.5-12.5,2.5c-4.4,1.1-8.7,1-12.8-0.8c-6.3-2.8-10.4-7.5-11.2-14.4C209.5,226.1,212,219.5,218.1,214.5z M290.5,390.7
	c-1.7,0.4-77.7,0.5-79.8,0.1c0-0.6-0.1-1.3-0.1-1.9c0-24.4-0.1-48.7,0-73.1c0-11.7,4.2-21.8,12.8-29.9c5.7-5.3,12.4-8.8,20.1-10.1
	c13.8-2.3,25.8,1.6,35.7,11.4c6,5.9,9.6,13.2,10.8,21.6c0.3,2.1,0.4,4.2,0.4,6.3c0,24.6,0,49.1,0,73.7
	C290.5,389.5,290.5,390.1,290.5,390.7z M308.1,193.5c-1,5.1-3.7,9.1-7.9,12.2c-1.9,1.4-3.9,2.6-6.3,3.1c-3.3,0.7-6.4,0-9.1-2
	c-2.4-1.9-3.9-4.4-4.6-7.4c-1-4.1-0.6-8,0.8-12c2-5.6,5-10.7,9.1-15c1.4-1.5,3-2.8,4.9-3.5c2.4-0.9,4.7-0.4,6.6,1.2
	c2.5,2,3.9,4.7,5.1,7.5c1.4,3.4,2,7.1,2.1,10.7C308.6,190,308.4,191.8,308.1,193.5z"/>
</svg>
