<?xml version="1.0" encoding="utf-8"?>
<!-- Generator: Adobe Illustrator 19.0.0, SVG Export Plug-In . SVG Version: 6.00 Build 0)  -->
<svg version="1.1" id="Layer_1" xmlns="http://www.w3.org/2000/svg" xmlns:xlink="http://www.w3.org/1999/xlink" x="0px" y="0px"
	 viewBox="0 0 500 500" style="enable-background:new 0 0 500 500;" xml:space="preserve">
<style type="text/css">
	.st0{fill:#010101;}
</style>
<g id="XMLID_21_">
	<path id="XMLID_25_" class="st0" d="M345.4,299c-7-5-14.8-6.3-23.1-4.8c-6,1.1-12,1.7-18.1,1.5c-5-0.1-10-0.9-15-1.8
		c-11.1-2-20.7,1.2-28.3,9.2c-6.9,7.2-8.4,16-5.7,25.5c1.8,6.2,5.7,11,10.8,14.8c4.9,3.6,9.9,7.1,14.2,11.5
		c3.5,3.6,6.6,7.6,8.7,12.2c1.9,4.2,4.4,8,7.4,12c2.6,3.3,7.1,7.7,10.7,10.2c4,2.9,8.5,4.6,13.5,4.2c9-0.8,15.9-5.4,21.2-12.5
		c3.3-4.5,4.6-9.7,5.3-15.1c0.7-6.2,1.3-12.5,2.1-18.7c1-8,2.4-16,4.7-23.7C356.6,314.1,353.3,304.6,345.4,299z"/>
	<path id="XMLID_31_" class="st0" d="M304.7,284.8c6.3-1.7,11.2-5.6,14.9-10.9c3.5-5.1,6.1-10.6,7.8-16.6c1.4-4.8,2.4-9.6,2-14.7
		c-0.4-4.6-2.9-8-7.3-9.4c-2.2-0.7-4.4-0.7-6.6-0.5c-7.8,0.8-14.5,4.1-20.6,9c-0.9,0.8-1.8,1.7-2.7,2.5c-3.1,3-5.5,6.4-7,10.4
		c-2.3,5.9-2.4,11.9-0.9,18C286.5,282.2,295.3,287.4,304.7,284.8z"/>
	<path id="XMLID_32_" class="st0" d="M409.3,337c-2.6-1.5-5.4-2.1-8.3-2.3c-8.5-0.5-16.8,0.7-24.8,3.7c-5.6,2.1-10.3,5.3-13.9,10.1
		c-2.6,3.5-4.1,7.4-3.9,11.8c0.2,4.9,2.2,8.8,6,11.8c2.7,2.1,5.8,3.3,9.1,4.2c7.2,1.9,14.1,1.2,20.6-2.4c2.2-1.2,4.2-2.7,6.4-4
		c3.8-3.5,7.4-7.4,9.9-12.1c2.1-3.9,3.8-7.9,3.7-12.5C414,341.8,412.5,338.9,409.3,337z"/>
	<path id="XMLID_33_" class="st0" d="M340.2,287.9c0.5,0.3,1,0.5,1.5,0.7c1,0.4,1.9,0.8,3,1.1c0.8,0.2,1.7,0.4,2.2,0.4
		c0.9,0.1,1.9,0.1,3,0.1c0.1,0,0.2,0,0.3,0c0.1,0,0.2,0,0.2,0c0.1,0,0.1,0,0.2,0c0,0,0.1,0,0.1,0c7.8-0.4,14.4-3.7,20.1-9
		c4.8-4.5,8.8-9.7,12.6-15c2.6-3.7,4.9-7.6,6.2-11.9c0.9-2.9,1.3-5.9-0.2-8.7c-2.2-4.2-5.9-6.5-10.4-7.3c-9-1.6-17.7-0.5-26.3,2.6
		c-6.4,2.3-11.8,6.1-15.7,11.7c-4.2,6.2-6.7,12.9-6.2,20.6C331.4,279.5,334.9,285,340.2,287.9L340.2,287.9
		C340.2,287.9,340.2,287.9,340.2,287.9z"/>
	<path id="XMLID_34_" class="st0" d="M406.2,274.2c-3.9,0.5-7.7,1.6-11.2,3.2c-4.4,2-8.6,4.3-12.9,6.5c-6.2,3.2-11.4,7.7-15.2,13.7
		c-3.1,5-4.7,10.3-3.7,16.2c1.3,7.6,6.1,12.3,13.4,14.5c0.1,0,0.2,0.1,0.2,0.1c0.5,0.2,1.1,0.4,1.7,0.5c0.5,0.1,0.8,0.1,1,0.1
		c3.4,0.5,6.7,0.5,10.1-0.2c8.1-1.6,15.1-5.2,20.1-11.9c5.4-7.1,8.8-15.2,10.1-24.1c0.5-3.8,0.3-7.6-1.2-11.3
		C416.3,275.8,412.4,273.5,406.2,274.2z"/>
	<path id="XMLID_37_" class="st0" d="M426.8,157.1c-3.4-8.9-8.6-16.9-15.1-23.8c-2.3-2.4-4.7-4.7-7.3-6.8c-1-1.2-2.1-2.4-3.1-3.6
		c-3.2-3.4-6.7-6.5-10.4-9.4l-2.8-2.1l-2.7-1.9c-2-1.4-4-2.6-6.1-3.7c-8.3-4.6-17.7-7.4-27.2-8.2c-9.5-0.9-19,0.3-28,2.7
		c-9,2.5-17.6,6.2-25.6,10.7c-8,4.5-15.4,10-22.3,16c-6.9,6-13.2,12.6-18.9,19.7c-5.7,7.1-10.8,14.7-15.1,22.8
		c-2,3.8-3.8,7.8-5.4,11.9c-0.7-0.9-1.3-1.8-2-2.7c-6.2-8.2-13.2-15.9-20.8-23c-0.3-0.3-0.6-0.5-0.8-0.8c-3.1-3.3-6.2-6.6-9.6-9.6
		c-7.6-7-15.9-13.3-25.1-18.4c-9.1-5.1-19-8.8-29.3-10.6l-3.9-0.6l-4-0.4l-3.8-0.2c-1.4,0-2.6,0-4,0c-5.2,0.1-10.4,0.8-15.5,2
		c-10.1,2.5-19.7,7.4-27.3,14.6c-7.6,7.1-13.2,16.2-16.5,26c-3.4,9.8-4.8,20.1-4.3,30.4c0.4,10.4,2.5,20.4,5.8,30.2
		c3.2,9.8,7.6,19.1,12.9,27.9c10.7,17.6,24.6,32.9,38.6,47.5c7,7.3,14.3,14.3,21.3,21.6c7,7.2,13.9,14.4,20.3,22
		c6.4,7.6,12.4,15.4,17.5,23.8c5.1,8.3,9.5,17.1,12.6,26.4l1.7,5.1l4.3-3.1l0.9-0.6c1.3,2.9,2.5,5.9,3.5,9l1.7,5.1l4.3-3.1l7.8-5.6
		l8-5.4l8.1-5.2l8.2-5.1l8.3-5l8.4-4.9l7.6-4.3c-1.4-0.5-2.6-1.4-3.6-2.6l-6.1,3c-5.8,2.9-11.6,5.8-17.4,8.8l-8.7,4.6l-8.6,4.8
		l-8.4,5.1l-3.8,2.5c-0.8-2.3-1.6-4.5-2.5-6.7l0,0l8-5.4l8.1-5.2l8.2-5.1l8.3-5l8.4-4.9l8.9-5.1c-0.6-1.1-1.3-2.2-1.8-3.4l-9.2,4.5
		c-5.8,2.9-11.6,5.8-17.4,8.8l-8.7,4.6l-8.6,4.8l-7.4,4.5c-1.6-3.5-3.4-6.9-5.4-10.2c-5.3-9-11.4-17.4-18.1-25.2
		c-6.7-7.8-13.7-15.2-21-22.4c-0.8-0.8-1.7-1.6-2.5-2.5c-2.6-2.7-5.2-5.3-7.9-7.9c-7.3-7.1-14.6-14.1-21.9-21
		c-1.9-1.8-3.8-3.7-5.7-5.5c-8.6-9-16.7-18.4-23.6-28.7c-5.5-8.2-10.2-17-13.7-26.3c-3.4-9.3-5.8-19.1-6.3-29
		c-0.5-9.9,0.6-19.9,3.9-29.2c3.3-9.3,8.6-17.9,15.9-24.5c7.3-6.6,16.3-11.1,25.9-13c4.8-1,9.7-1.4,14.6-1.3c1.2,0,2.5,0,3.6,0.1
		l3.8,0.3l3.6,0.5l3.6,0.7c9.6,2,18.6,6,27,11.1c6.4,3.9,12.4,8.6,18,13.6c4.9,5.3,9.4,11,13.7,16.9c5.8,8,11,16.4,15.7,25.2
		l5.9,11.2l1.4-6.2c1,1.8,2.1,3.6,3,5.5l5.9,11.2l2.8-12.4c1.8-8,5.1-15.9,9.1-23.2c4-7.4,8.9-14.4,14.3-20.9
		c5.4-6.5,11.4-12.6,17.9-18.1c6.5-5.5,13.4-10.3,20.7-14.5c7.3-4.1,15-7.5,23-9.6c8-2.1,16.2-3.1,24.2-2.5c8,0.6,15.9,2.8,23,6.6
		c1.8,0.9,3.6,2,5.2,3.1l2.7,1.8l2.5,1.8c1.2,0.9,2.4,1.8,3.5,2.8c3.7,4.6,6.8,9.6,9,15c3.2,7.5,4.8,15.7,4.9,24
		c0.2,8.3-1,16.8-3,25.1c-2.1,8.3-5.1,16.4-8.7,24.3c-1.4,3.1-3,6.2-4.6,9.2c1,1.1,2.1,2.3,3.1,3.4c2.1-3.4,4.1-6.8,6-10.4
		c4.2-7.9,7.9-16.1,10.7-24.7c2.7-8.6,4.6-17.6,4.9-26.9c0.1-1.8,0-3.6,0-5.4c1.3,5.1,2,10.4,2.1,15.7c0.2,8.3-1,16.8-3,25.1
		c-2.1,8.3-5.1,16.4-8.7,24.3c-1.5,3.3-3.1,6.5-4.8,9.7c1,1.1,2.1,2.1,3.2,3.2c2.2-3.5,4.2-7,6.2-10.6c4.2-7.9,7.9-16.1,10.7-24.7
		c2.7-8.6,4.6-17.6,4.9-26.9C431.5,175.5,430.1,166,426.8,157.1z M155.9,126.1l-4-0.4l-3.8-0.2c-1.4,0-2.6,0-4,0
		c-5.2,0.1-10.4,0.8-15.5,2c-10.1,2.5-19.7,7.4-27.3,14.6c-7.6,7.1-13.2,16.2-16.5,26c-3.4,9.8-4.8,20.1-4.3,30.4
		c0.4,10.4,2.5,20.4,5.8,30.2c0.8,2.4,1.7,4.8,2.6,7.2c-3.5-6.1-6.6-12.4-9.1-19c-3.4-9.3-5.8-19.1-6.3-29
		c-0.5-9.9,0.6-19.9,3.9-29.2c3.3-9.3,8.6-17.9,15.9-24.5c7.3-6.6,16.3-11.1,25.9-13c4.8-1,9.7-1.4,14.6-1.3c1.2,0,2.5,0,3.6,0.1
		l3.8,0.3l3.6,0.5l3.6,0.7c7,1.5,13.6,4,20,7.2c-2.8-0.8-5.7-1.5-8.6-2L155.9,126.1z M334.4,110.7c-9,2.5-17.6,6.2-25.6,10.7
		c-8,4.5-15.4,10-22.3,16c-6.9,6-13.2,12.6-18.9,19.7c-5.7,7.1-10.8,14.7-15.1,22.8c-2.5,4.8-4.8,9.8-6.6,15
		c-0.8-1.3-1.7-2.5-2.5-3.8c1.9-5.8,4.4-11.5,7.4-17c4-7.4,8.9-14.4,14.3-20.9c5.4-6.5,11.4-12.6,17.9-18.1
		c6.5-5.5,13.4-10.3,20.7-14.5c7.3-4.1,15-7.5,23-9.6c6.1-1.6,12.4-2.6,18.6-2.6C341.8,109,338.1,109.8,334.4,110.7z"/>
</g>
</svg>
